<svg width="100%" viewBox="0 0 700 200" xmlns="http://www.w3.org/2000/svg" xmlns:xlink="http://www.w3.org/1999/xlink">
  <defs>
    
    <marker id="arr-red" viewBox="0 0 10 10" refX="8" refY="5" markerWidth="6" markerHeight="6" orient="auto-start-reverse"><path d="M2 1L8 5L2 9" fill="none" stroke="#E24B4A" stroke-width="1.5" stroke-linecap="round" stroke-linejoin="round"/></marker>
    <marker id="arr-blue" viewBox="0 0 10 10" refX="8" refY="5" markerWidth="6" markerHeight="6" orient="auto-start-reverse"><path d="M2 1L8 5L2 9" fill="none" stroke="#2A78D6" stroke-width="1.5" stroke-linecap="round" stroke-linejoin="round"/></marker>
    <marker id="arr-green" viewBox="0 0 10 10" refX="8" refY="5" markerWidth="6" markerHeight="6" orient="auto-start-reverse"><path d="M2 1L8 5L2 9" fill="none" stroke="#008300" stroke-width="1.5" stroke-linecap="round" stroke-linejoin="round"/></marker>
    <marker id="arr-gray" viewBox="0 0 10 10" refX="8" refY="5" markerWidth="6" markerHeight="6" orient="auto-start-reverse"><path d="M2 1L8 5L2 9" fill="none" stroke="#a8a8a4" stroke-width="1.5" stroke-linecap="round" stroke-linejoin="round"/></marker>

    <g id="piece-blue"><circle cx="0" cy="0" r="9" fill="white" stroke="#1C5CAB" stroke-width="1.2"/><path d="M 6,0 C 6,4 2,7 -2,5.5 C -6,4 -7,-1 -4,-4.5 C -1,-7 3,-7 5,-4.5 C 6.5,-2.5 6,0.5 4,2 C 2,3.5 0,3 0,0" fill="none" stroke="#2A78D6" stroke-width="1.6" stroke-linecap="round"/></g><g id="piece-red"><circle cx="0" cy="0" r="9" fill="white" stroke="#A32D2D" stroke-width="1.2"/><path d="M 6,0 C 6,4 2,7 -2,5.5 C -6,4 -7,-1 -4,-4.5 C -1,-7 3,-7 5,-4.5 C 6.5,-2.5 6,0.5 4,2 C 2,3.5 0,3 0,0" fill="none" stroke="#E24B4A" stroke-width="1.6" stroke-linecap="round"/></g>
  </defs>
  <text x="260.0" y="20" font-family="Arial, sans-serif" font-size="16" fill="#0b0b0b" text-anchor="middle">Before</text><rect x="220" y="40" width="80" height="80" fill="#ffffff" stroke="rgb(150,150,150)" stroke-width="1"/><use href="#piece-blue" xlink:href="#piece-blue" x="236" y="62"/><use href="#piece-blue" xlink:href="#piece-blue" x="260" y="64"/><use href="#piece-blue" xlink:href="#piece-blue" x="248" y="80"/><use href="#piece-red" xlink:href="#piece-red" x="268" y="92"/><use href="#piece-red" xlink:href="#piece-red" x="288" y="105"/><text x="560.0" y="20" font-family="Arial, sans-serif" font-size="16" fill="#0b0b0b" text-anchor="middle">After</text><rect x="520" y="40" width="80" height="80" fill="#ffffff" stroke="rgb(150,150,150)" stroke-width="1"/><use href="#piece-blue" xlink:href="#piece-blue" x="536" y="62"/><use href="#piece-blue" xlink:href="#piece-blue" x="560" y="64"/><use href="#piece-blue" xlink:href="#piece-blue" x="548" y="80"/><line x1="604" y1="98" x2="640" y2="98" stroke="#E24B4A" stroke-width="2.2" marker-end="url(#arr-red)"/><use href="#piece-red" xlink:href="#piece-red" x="652" y="92"/><use href="#piece-red" xlink:href="#piece-red" x="672" y="105"/>
</svg>