<svg width="100%" viewBox="0 0 700 380" xmlns="http://www.w3.org/2000/svg" xmlns:xlink="http://www.w3.org/1999/xlink">
  <defs>
    
    <marker id="arr-red" viewBox="0 0 10 10" refX="8" refY="5" markerWidth="6" markerHeight="6" orient="auto-start-reverse">
      <path d="M2 1L8 5L2 9" fill="none" stroke="#E24B4A" stroke-width="1.5" stroke-linecap="round" stroke-linejoin="round"/>
    </marker>
    <marker id="arr-blue" viewBox="0 0 10 10" refX="8" refY="5" markerWidth="6" markerHeight="6" orient="auto-start-reverse">
      <path d="M2 1L8 5L2 9" fill="none" stroke="#2A78D6" stroke-width="1.5" stroke-linecap="round" stroke-linejoin="round"/>
    </marker>
    <marker id="arr-green" viewBox="0 0 10 10" refX="8" refY="5" markerWidth="6" markerHeight="6" orient="auto-start-reverse">
      <path d="M2 1L8 5L2 9" fill="none" stroke="#008300" stroke-width="1.5" stroke-linecap="round" stroke-linejoin="round"/>
    </marker>
    <marker id="arr-gray" viewBox="0 0 10 10" refX="8" refY="5" markerWidth="6" markerHeight="6" orient="auto-start-reverse">
      <path d="M2 1L8 5L2 9" fill="none" stroke="#a8a8a4" stroke-width="1.5" stroke-linecap="round" stroke-linejoin="round"/>
    </marker>
    <marker id="arr-dark" viewBox="0 0 10 10" refX="8" refY="5" markerWidth="6" markerHeight="6" orient="auto-start-reverse">
      <path d="M2 1L8 5L2 9" fill="none" stroke="#52514e" stroke-width="1.5" stroke-linecap="round" stroke-linejoin="round"/>
    </marker>

    <g id="piece-red"><circle cx="0" cy="0" r="9" fill="white" stroke="#A32D2D" stroke-width="1.2"/><path d="M 6,0 C 6,4 2,7 -2,5.5 C -6,4 -7,-1 -4,-4.5 C -1,-7 3,-7 5,-4.5 C 6.5,-2.5 6,0.5 4,2 C 2,3.5 0,3 0,0" fill="none" stroke="#E24B4A" stroke-width="1.6" stroke-linecap="round"/></g><g id="piece-blue"><circle cx="0" cy="0" r="9" fill="white" stroke="#1C5CAB" stroke-width="1.2"/><path d="M 6,0 C 6,4 2,7 -2,5.5 C -6,4 -7,-1 -4,-4.5 C -1,-7 3,-7 5,-4.5 C 6.5,-2.5 6,0.5 4,2 C 2,3.5 0,3 0,0" fill="none" stroke="#2A78D6" stroke-width="1.6" stroke-linecap="round"/></g>
  </defs>
  <text x="30" y="30" font-family="Arial, sans-serif" font-size="14" fill="#52514e" text-anchor="start" >Equal size</text><text x="260.0" y="20" font-family="Arial, sans-serif" font-size="16" fill="#0b0b0b" text-anchor="middle" >Before</text><rect x="220" y="40" width="80" height="80" fill="#ffffff" stroke="rgb(150,150,150)" stroke-width="1"/><use href="#piece-blue" xlink:href="#piece-blue" x="250.0" y="74.0"/><use href="#piece-blue" xlink:href="#piece-blue" x="270.0" y="87.0"/><use href="#piece-red" xlink:href="#piece-red" x="142" y="74.0"/><use href="#piece-red" xlink:href="#piece-red" x="158" y="87.0"/><line x1="180" y1="80.0" x2="218" y2="80.0" stroke="#E24B4A" stroke-width="2.2" marker-end="url(#arr-red)"/><text x="560.0" y="20" font-family="Arial, sans-serif" font-size="16" fill="#0b0b0b" text-anchor="middle" >After</text><rect x="520" y="40" width="80" height="80" fill="#ffffff" stroke="rgb(150,150,150)" stroke-width="1"/><use href="#piece-red" xlink:href="#piece-red" x="550.0" y="74.0"/><use href="#piece-red" xlink:href="#piece-red" x="570.0" y="87.0"/><line x1="604" y1="80.0" x2="634" y2="120" stroke="#a8a8a4" stroke-width="2.2" marker-end="url(#arr-gray)"/><text x="610" y="70.0" font-family="Arial, sans-serif" font-size="12" fill="#a8a8a4" text-anchor="start" >HOME</text><use href="#piece-blue" xlink:href="#piece-blue" x="652" y="98"/><use href="#piece-blue" xlink:href="#piece-blue" x="668" y="111"/><text x="30" y="210" font-family="Arial, sans-serif" font-size="14" fill="#52514e" text-anchor="start" >Strictly bigger</text><text x="260.0" y="200" font-family="Arial, sans-serif" font-size="16" fill="#0b0b0b" text-anchor="middle" >Before</text><rect x="220" y="220" width="80" height="80" fill="#ffffff" stroke="rgb(150,150,150)" stroke-width="1"/><use href="#piece-blue" xlink:href="#piece-blue" x="250.0" y="254.0"/><use href="#piece-blue" xlink:href="#piece-blue" x="270.0" y="267.0"/><use href="#piece-red" xlink:href="#piece-red" x="138" y="252.0"/><use href="#piece-red" xlink:href="#piece-red" x="162" y="254.0"/><use href="#piece-red" xlink:href="#piece-red" x="150" y="270.0"/><line x1="180" y1="260.0" x2="218" y2="260.0" stroke="#E24B4A" stroke-width="2.2" marker-end="url(#arr-red)"/><text x="560.0" y="200" font-family="Arial, sans-serif" font-size="16" fill="#0b0b0b" text-anchor="middle" >After</text><rect x="520" y="220" width="80" height="80" fill="#ffffff" stroke="rgb(150,150,150)" stroke-width="1"/><use href="#piece-red" xlink:href="#piece-red" x="548.0" y="252.0"/><use href="#piece-red" xlink:href="#piece-red" x="572.0" y="254.0"/><use href="#piece-red" xlink:href="#piece-red" x="560.0" y="270.0"/><line x1="604" y1="260.0" x2="634" y2="300" stroke="#a8a8a4" stroke-width="2.2" marker-end="url(#arr-gray)"/><text x="610" y="250.0" font-family="Arial, sans-serif" font-size="12" fill="#a8a8a4" text-anchor="start" >HOME</text><use href="#piece-blue" xlink:href="#piece-blue" x="652" y="278"/><use href="#piece-blue" xlink:href="#piece-blue" x="668" y="291"/>
</svg>